<?xml version="1.0" encoding="utf-8"?>
<!-- Generator: Adobe Illustrator 23.0.0, SVG Export Plug-In . SVG Version: 6.00 Build 0)  -->
<svg version="1.1" id="Layer_1" xmlns="http://www.w3.org/2000/svg" xmlns:xlink="http://www.w3.org/1999/xlink" x="0px" y="0px"
	 viewBox="0 0 1200 1200" style="enable-background:new 0 0 1200 1200;" xml:space="preserve">
<style type="text/css">
	.st0{opacity:0.66;fill:#EC2227;}
	.st1{fill:#E5273E;}
	.st2{fill:#3A8AC7;}
	.st3{opacity:0.85;}
	.st4{opacity:0.36;fill:url(#SVGID_1_);}
	.st5{fill:url(#SVGID_2_);}
	.st6{fill:url(#SVGID_3_);}
</style>
<path class="st0" d="M49.42,506.28l-0.37,0.37l-2.67-2.67C47.38,504.77,48.42,505.54,49.42,506.28z"/>
<g>
	<g>
		<path class="st1" d="M600,867.57c10.6,0,21.05-0.63,31.33-1.85L461.43,1035.6c-182.58-58.53-314.74-229.69-314.74-431.72
			c0-25.04,2.03-49.61,5.95-73.55l271.65,271.65l0.78-0.78C471.62,842.5,532.87,867.57,600,867.57z"/>
		<path class="st2" d="M337.79,631.99L168.97,463.16c59.18-181.48,229.8-312.6,431.03-312.6c25.99,0,51.47,2.18,76.27,6.4
			L435.26,397.96c-60.32,48.32-98.96,122.61-98.96,205.92C336.3,613.37,336.81,622.76,337.79,631.99z"/>
		<path class="st2" d="M860.68,568.01l168.83,168.83c-59.18,181.48-229.8,312.6-431.03,312.6c-25.99,0-51.47-2.18-76.27-6.4
			l241.01-240.99c60.32-48.32,98.96-122.61,98.96-205.92C862.17,586.63,861.66,577.24,860.68,568.01z"/>
		<path class="st1" d="M1053.31,603.88c0,25.13-2.05,49.8-5.99,73.83L773.59,403.97l-0.76,0.77
			c-46.27-40.22-106.7-64.55-172.82-64.55c-8.28,0-16.49,0.39-24.59,1.14L743.1,173.61C923.33,233.53,1053.31,403.52,1053.31,603.88
			z"/>
	</g>
	<g class="st3">
		<linearGradient id="SVGID_1_" gradientUnits="userSpaceOnUse" x1="821.5621" y1="436.217" x2="564.5817" y2="623.1119">
			<stop  offset="0" style="stop-color:#FCEE23"/>
			<stop  offset="0.4966" style="stop-color:#FBD037"/>
			<stop  offset="1" style="stop-color:#FBB042"/>
		</linearGradient>
		<path class="st4" d="M590.42,605.92C587.16,603.19,588.17,604.21,590.42,605.92L590.42,605.92z"/>
	</g>
</g>
<g>
	<linearGradient id="SVGID_2_" gradientUnits="userSpaceOnUse" x1="676.0093" y1="482.5365" x2="405.4479" y2="694.8232">
		<stop  offset="0" style="stop-color:#FCEE23"/>
		<stop  offset="0.4966" style="stop-color:#FBD037"/>
		<stop  offset="1" style="stop-color:#FBB042"/>
	</linearGradient>
	<path class="st5" d="M696.44,573.93c-3.79,20.29-12.97,44.27-18.75,43.43c-0.04,0-0.09-0.02-0.13-0.04
		c0.58-4.06,0.87-8.23,0.87-12.45c0-49.48-40.12-89.58-89.6-89.58c-36.38,0-67.69,21.67-81.74,52.82
		c-12.34,21.45-14.77,42.15-15.62,51.64c-1.25,13.84-3.01,56.9,24.39,93.51c29.93,40.03,74.31,45.1,71.92,53.94
		c-0.71,2.61-4.96,3.53-11.72,3.53h-96.3c-4.33,0-8.46-0.91-12.18-2.55c-10.65-4.67-18.08-15.31-18.08-27.7V458.82
		c0-5.02,1.21-9.75,3.39-13.9c3.84-7.45,10.69-13.08,18.95-15.29c14.59,0.74,35.66,1.65,56.01,1.92c53.6,0.72,59.49-3.53,80.92,3.01
		c24.19,7.37,40.06,19.91,44.95,23.97c5.31,4.4,41.49,35.37,44.95,83.91C699.64,556.26,697.69,567.24,696.44,573.93z"/>
	
		<linearGradient id="SVGID_3_" gradientUnits="userSpaceOnUse" x1="783.0273" y1="513.5229" x2="543.5356" y2="701.4316" gradientTransform="matrix(0.9979 -0.0652 0.0652 0.9979 -46.8674 49.5511)">
		<stop  offset="0" style="stop-color:#FCEE23"/>
		<stop  offset="0.4966" style="stop-color:#FBD037"/>
		<stop  offset="1" style="stop-color:#FBB042"/>
	</linearGradient>
	<path class="st6" d="M786.97,584.28l0.35,5.39c0.67,13.52-0.25,26.74-2.61,39.52c-7.19,39.22-27.88,74.07-57.34,99.21
		c-23,17.25-65.98,35.06-111.39,25.95c-47.68-9.56-81.21-43.87-78.56-46.95c1.42-1.67,18.74,4.01,38,7.55
		c42.32,7.78,79.93-7.28,82.49-8.39c27.89-12.01,42.26-32.67,51.11-45.38c6.72-9.68,28.89-42.53,27.22-88.88
		c-1.4-39.18-19.08-66.59-29.4-82.17c-26.53-40.01-56.95-52.89-54.75-56.49c0.7-1.17,4.8-1.28,11.16-0.11
		c54.45,15.49,98.41,57.43,115.99,111.92C783.24,557.78,785.87,570.79,786.97,584.28z"/>
</g>
</svg>
